<?xml version="1.0" standalone="no"?>
<!DOCTYPE svg PUBLIC "-//W3C//DTD SVG 20010904//EN"
 "http://www.w3.org/TR/2001/REC-SVG-20010904/DTD/svg10.dtd">
<svg version="1.0" xmlns="http://www.w3.org/2000/svg"
 width="1315.000000pt" height="718.000000pt" viewBox="0 0 1315.000000 718.000000"
 preserveAspectRatio="xMidYMid meet">

<g transform="translate(0.000000,718.000000) scale(0.100000,-0.100000)"
fill="#000000" stroke="none">
<path d="M2480 6868 l-1 -113 -183 -320 -183 -320 -62 -3 -62 -3 2 -123 1
-122 -133 -312 -134 -312 -57 0 -58 0 0 -115 0 -115 39 0 39 0 6 -62 c3 -35
15 -353 26 -708 11 -355 22 -678 25 -717 l6 -73 -41 0 -40 0 0 -115 0 -115
115 0 c96 0 115 3 115 15 0 8 5 15 11 15 6 0 303 -122 660 -272 l649 -271 0
-89 0 -88 45 0 c36 0 45 -3 45 -17 0 -10 9 -133 20 -273 27 -344 27 -330 -10
-330 l-30 0 0 -120 0 -120 33 0 33 0 -23 -307 c-13 -170 -25 -314 -28 -320 -2
-8 -22 -13 -45 -13 l-41 0 3 -112 3 -113 115 0 115 0 3 33 c3 27 7 31 25 27
12 -2 380 -41 817 -85 437 -44 805 -83 818 -86 20 -4 22 -10 22 -74 l0 -70
115 0 115 0 0 78 0 78 643 785 643 784 101 3 102 3 3 49 3 50 750 -393 750
-394 3 -86 3 -87 39 0 c22 0 40 -4 40 -10 0 -5 -111 -233 -247 -505 l-248
-495 -77 0 -78 0 0 -115 0 -115 115 0 115 0 0 115 0 115 -25 0 c-23 0 -11 28
226 503 l251 502 58 3 59 3 3 82 3 81 495 183 c272 100 498 182 503 182 4 1 7
-8 7 -19 0 -19 7 -20 115 -20 l115 0 0 35 0 35 720 0 720 0 0 -35 0 -35 74 0
74 0 256 -500 c141 -275 256 -502 256 -505 0 -3 -9 -5 -20 -5 -19 0 -20 -7
-20 -115 l0 -115 115 0 115 0 0 115 0 114 -81 3 -82 3 -257 502 c-256 501
-257 503 -229 503 l29 0 0 115 0 115 -115 0 -114 0 -3 -67 -3 -68 -717 -3
-718 -2 0 69 c0 51 -4 70 -14 73 -9 2 149 292 483 883 273 484 506 897 518
918 22 37 23 37 88 37 l65 0 0 115 0 114 -65 3 -64 3 -361 555 -361 555 36 3
35 3 0 115 0 114 -114 0 c-104 0 -115 -2 -118 -19 -3 -16 -75 13 -543 215
-297 129 -577 250 -622 270 l-83 37 0 83 0 84 -115 0 -115 0 0 -115 0 -115
114 0 c103 0 115 2 118 18 3 19 -8 24 1026 -424 l222 -97 0 -83 0 -83 67 -3
66 -3 363 -557 363 -558 -40 0 -39 0 0 -114 0 -115 35 -3 34 -3 -517 -917
-517 -918 -87 0 -88 0 0 -81 0 -80 -33 -14 c-43 -17 -937 -346 -959 -352 -13
-4 -18 1 -18 16 0 20 -5 21 -77 21 l-78 1 -957 1212 c-526 667 -952 1214 -947
1215 5 2 9 55 9 118 l0 114 -115 0 -115 0 0 -30 c0 -27 -3 -30 -32 -30 -53 0
-1809 100 -1855 106 l-43 5 0 65 0 64 -95 0 -95 0 -747 1123 -748 1122 3 123
3 122 -115 0 -116 0 0 -112z m180 -8 l0 -71 -67 3 -68 3 -3 68 -3 67 71 0 70
0 0 -70z m755 -1232 c711 -1066 765 -1152 741 -1175 -4 -4 -2255 670 -2293
687 -19 8 -23 17 -23 55 l0 45 -46 0 c-33 0 -45 4 -41 13 3 6 65 150 138 320
l133 307 98 0 98 0 0 115 0 115 -40 0 c-22 0 -40 2 -40 5 0 5 205 367 322 568
l39 67 83 0 83 0 748 -1122z m5255 482 l0 -70 -70 0 -70 0 0 70 0 70 70 0 70
0 0 -70z m-6492 -112 l3 -68 -71 0 -70 0 0 70 0 71 68 -3 67 -3 3 -67z m7972
-558 l0 -71 -67 3 -68 3 -3 68 -3 67 71 0 70 0 0 -70z m-8352 -317 l-3 -68
-67 -3 -68 -3 0 71 0 70 70 0 71 0 -3 -67z m1193 -346 c614 -185 1128 -341
1142 -346 26 -10 27 -13 27 -91 l0 -80 79 0 79 0 221 -399 c121 -219 221 -402
221 -405 0 -3 -11 -6 -25 -6 l-25 0 0 -115 0 -115 73 0 73 0 172 -1212 c95
-667 172 -1216 172 -1220 0 -5 -13 -8 -30 -8 -27 0 -30 -3 -30 -30 0 -26 -4
-30 -27 -30 -32 0 -1572 157 -1620 165 l-33 6 0 69 0 70 -66 0 -67 0 6 63 c4
34 13 163 22 287 9 124 18 240 21 258 l5 32 69 0 70 0 0 120 0 120 -70 0 c-64
0 -70 2 -74 22 -3 13 -12 127 -21 253 -9 127 -18 256 -22 288 l-6 57 67 0 66
0 0 115 0 115 -119 0 c-95 0 -120 -3 -123 -14 -2 -11 -178 59 -660 261 l-658
276 0 83 0 84 -64 0 -64 0 -6 103 c-5 87 -42 1158 -48 1377 l-1 75 61 3 62 3
0 56 c0 48 2 55 18 50 9 -2 519 -156 1133 -340z m1349 -397 l0 -70 -70 0 -70
0 0 70 0 70 70 0 70 0 0 -70z m850 -91 c382 -22 793 -45 913 -51 l217 -11 0
-73 0 -73 92 -3 93 -3 956 -1210 c835 -1057 953 -1210 932 -1213 -13 -2 -23
-10 -23 -18 0 -9 -4 -14 -10 -12 -5 2 -344 179 -754 393 l-746 390 0 53 0 52
-115 0 c-108 0 -115 -1 -115 -20 0 -11 -3 -20 -7 -20 -5 0 -385 181 -845 402
l-838 402 0 88 0 88 -74 0 -74 0 -216 388 c-118 213 -218 394 -221 403 -4 11
0 18 14 22 16 4 21 13 21 39 l0 35 53 -4 c28 -2 365 -22 747 -44z m1320 -89
l0 -70 -70 0 -70 0 0 70 0 70 70 0 70 0 0 -70z m4420 -110 l0 -70 -70 0 -70 0
0 70 0 70 70 0 70 0 0 -70z m-9070 -750 l0 -70 -70 0 -70 0 0 70 0 70 70 0 70
0 0 -70z m3038 -2 l3 -68 -71 0 -70 0 0 70 0 71 68 -3 67 -3 3 -67z m957 -527
l770 -370 0 -85 0 -85 -625 -762 c-388 -473 -626 -756 -628 -746 -3 14 -16 17
-76 17 l-72 0 -168 1188 c-93 653 -171 1202 -174 1220 -4 30 -3 32 27 32 20 0
31 5 31 14 0 18 -54 43 915 -423z m-2445 -161 l0 -70 -70 0 -70 0 0 70 0 70
70 0 70 0 0 -70z m3400 -250 l0 -70 -65 0 -65 0 0 70 0 70 65 0 65 0 0 -70z
m2980 -370 l0 -70 -70 0 -70 0 0 70 0 70 70 0 70 0 0 -70z m1670 0 l0 -70 -70
0 -70 0 0 63 c0 35 3 67 7 70 3 4 35 7 70 7 l63 0 0 -70z m-7980 -240 l0 -70
-70 0 -70 0 0 70 0 70 70 0 70 0 0 -70z m5070 -260 l0 -71 -67 3 -68 3 -3 68
-3 67 71 0 70 0 0 -70z m-5140 -610 l0 -70 -70 0 -70 0 0 70 0 70 70 0 70 0 0
-70z m8680 -130 l0 -70 -70 0 -70 0 0 70 0 70 70 0 70 0 0 -70z m-6770 -130
l0 -71 -67 3 -68 3 -3 68 -3 67 71 0 70 0 0 -70z m2668 -367 l-3 -68 -67 -3
-68 -3 0 71 0 70 70 0 71 0 -3 -67z"/>
<path d="M2330 5899 c0 -19 1 -19 16 -5 8 9 25 16 36 16 24 0 21 -10 -27 -85
-19 -31 -35 -58 -35 -60 0 -3 29 -5 65 -5 36 0 65 4 65 9 0 5 3 18 6 28 5 13
2 12 -10 -4 -16 -21 -76 -34 -76 -17 0 4 18 35 40 70 22 35 40 66 40 69 0 3
-27 5 -60 5 -54 0 -60 -2 -60 -21z"/>
<path d="M2700 5906 c0 -9 7 -16 16 -16 17 0 14 22 -4 28 -7 2 -12 -3 -12 -12z"/>
<path d="M2937 5912 c19 -12 12 -137 -7 -137 -19 0 -26 61 -9 81 9 11 8 14 -3
14 -23 0 -38 -22 -38 -56 0 -40 15 -52 65 -52 l40 -1 -3 80 c-3 78 -4 79 -30
79 -16 0 -22 -3 -15 -8z"/>
<path d="M2498 5859 c-21 -12 -24 -69 -6 -87 15 -15 55 -16 64 0 4 7 3 8 -5 4
-19 -12 -41 14 -41 50 0 25 4 34 16 34 11 0 15 -6 11 -20 -4 -15 0 -20 15 -20
19 0 19 2 6 23 -18 26 -36 31 -60 16z"/>
<path d="M2585 5815 c0 -48 2 -55 20 -55 18 0 20 5 17 45 -4 46 -4 46 23 39
21 -5 26 -3 23 7 -2 7 -22 14 -44 16 l-39 2 0 -54z"/>
<path d="M2695 5815 c0 -48 2 -55 20 -55 18 0 20 5 17 55 -3 43 -7 55 -20 55
-14 0 -17 -10 -17 -55z"/>
<path d="M2755 5814 c0 -47 2 -54 20 -54 18 0 20 5 17 45 -3 37 -1 45 13 45
14 0 16 -8 13 -45 -3 -40 -1 -45 17 -45 19 0 20 5 15 52 l-5 53 -45 1 -45 1 0
-53z"/>
<path d="M2858 4965 c-2 -62 0 -75 12 -75 12 0 14 13 12 75 -2 41 -7 75 -12
75 -5 0 -10 -34 -12 -75z"/>
<path d="M2989 5023 c-10 -11 -10 -14 -1 -9 9 5 12 -4 12 -33 0 -37 -2 -41
-26 -41 -20 0 -25 4 -20 16 5 14 4 15 -9 4 -24 -20 -18 -30 20 -30 28 0 35 -4
35 -20 0 -11 5 -20 10 -20 6 0 10 9 10 19 0 11 6 22 13 24 10 4 10 6 0 6 -9 1
-13 18 -13 51 0 52 -8 61 -31 33z"/>
<path d="M3059 5023 c-17 -20 -17 -97 1 -118 21 -26 29 -17 13 16 -13 25 -14
41 -6 75 11 49 11 51 -8 27z"/>
<path d="M3114 5033 c12 -21 9 -112 -4 -128 -9 -11 -9 -15 -1 -15 7 0 18 15
26 34 17 40 11 89 -13 108 -12 10 -14 10 -8 1z"/>
<path d="M1960 3478 c1 -20 2 -21 11 -5 5 9 17 17 24 17 20 0 22 -136 3 -143
-7 -3 5 -6 27 -6 30 -1 36 2 27 11 -18 18 -16 138 2 138 8 0 22 -10 31 -22
l16 -23 -3 25 c-3 24 -7 25 -70 28 -65 3 -68 2 -68 -20z"/>
<path d="M2130 3486 c0 -9 7 -16 16 -16 9 0 14 5 12 12 -6 18 -28 21 -28 4z"/>
<path d="M2390 3486 c0 -9 7 -16 16 -16 9 0 14 5 12 12 -6 18 -28 21 -28 4z"/>
<path d="M2125 3395 c0 -48 2 -55 20 -55 18 0 20 5 17 55 -3 43 -7 55 -20 55
-14 0 -17 -10 -17 -55z"/>
<path d="M2185 3394 c0 -47 2 -54 20 -54 18 0 20 5 17 45 -3 37 -1 45 13 45
14 0 16 -8 13 -45 -3 -40 -1 -45 17 -45 17 0 20 7 20 42 0 32 4 43 15 43 11 0
15 -11 15 -43 0 -36 3 -42 21 -42 19 0 20 4 14 45 -9 57 -23 74 -49 58 -10 -7
-22 -9 -26 -5 -4 4 -25 8 -48 8 l-42 1 0 -53z"/>
<path d="M2385 3395 c0 -48 2 -55 20 -55 18 0 20 5 17 55 -3 43 -7 55 -20 55
-14 0 -17 -10 -17 -55z"/>
<path d="M2447 3443 c-15 -14 -6 -43 19 -59 15 -10 23 -23 19 -31 -3 -9 0 -13
7 -11 25 9 21 42 -8 65 -31 24 -25 45 6 25 17 -10 20 -10 20 3 0 15 -50 22
-63 8z"/>
<path d="M2546 3434 c-19 -18 -21 -65 -4 -82 20 -20 23 -14 23 35 0 27 5 48
12 50 18 6 28 -44 14 -73 -12 -27 0 -32 23 -8 20 20 20 43 0 72 -18 26 -46 28
-68 6z"/>
<path d="M2662 3438 c-17 -17 -15 -28 4 -28 10 0 14 6 10 15 -4 10 1 15 14 15
32 0 24 -34 -10 -47 -20 -7 -30 -18 -30 -32 0 -17 6 -20 48 -19 l47 0 -3 41
c-3 23 -9 48 -14 55 -13 15 -50 16 -66 0z m48 -62 c0 -8 -4 -17 -9 -21 -12 -7
-24 12 -16 25 9 15 25 12 25 -4z"/>
<path d="M2765 3395 c0 -48 2 -55 20 -55 18 0 20 5 17 45 -4 46 -4 46 23 39
21 -5 26 -3 23 7 -2 7 -22 14 -44 16 l-39 2 0 -54z"/>
<path d="M2882 3438 c-17 -17 -15 -28 4 -28 10 0 14 6 10 15 -4 10 1 15 14 15
32 0 24 -34 -10 -47 -20 -7 -30 -18 -30 -32 0 -17 6 -20 48 -19 l47 0 -3 41
c-3 23 -9 48 -14 55 -13 15 -50 16 -66 0z m48 -62 c0 -8 -4 -17 -9 -21 -12 -7
-24 12 -16 25 9 15 25 12 25 -4z"/>
<path d="M2440 3357 c0 -10 8 -17 18 -17 9 0 13 4 7 8 -5 4 -13 11 -17 16 -5
5 -8 2 -8 -7z"/>
<path d="M3578 2708 c16 -16 16 -120 0 -136 -9 -9 3 -12 54 -12 62 0 66 1 71
25 l4 26 -19 -21 c-10 -11 -30 -20 -43 -20 -24 0 -25 3 -25 63 0 36 5 68 12
75 9 9 3 12 -27 12 -30 0 -36 -3 -27 -12z"/>
<path d="M4110 2706 c0 -9 7 -16 16 -16 9 0 14 5 12 12 -6 18 -28 21 -28 4z"/>
<path d="M3737 2628 c7 -65 8 -66 55 -66 l43 0 -3 54 c-3 42 -7 54 -20 54 -13
0 -17 -10 -17 -47 0 -64 -23 -70 -27 -6 -2 35 -7 49 -20 51 -14 3 -15 -4 -11
-40z"/>
<path d="M3872 2658 c-16 -16 -15 -45 1 -51 9 -3 9 -8 1 -18 -6 -8 -11 -26
-12 -41 -1 -22 4 -29 23 -34 13 -3 30 -4 37 -1 7 3 1 6 -14 6 -40 1 -38 31 2
31 22 0 30 -5 30 -17 0 -13 3 -14 11 -6 19 19 3 40 -35 47 -25 5 -34 11 -29
19 4 7 6 24 4 39 -2 21 2 28 14 28 14 0 16 -7 13 -30 -6 -40 22 -38 33 2 6 22
3 27 -15 32 -33 9 -51 7 -64 -6z"/>
<path d="M3986 2654 c-19 -18 -21 -65 -4 -82 20 -20 23 -14 23 35 0 27 5 48
12 50 18 6 28 -44 14 -73 -12 -27 0 -32 23 -8 20 20 20 43 0 72 -18 26 -46 28
-68 6z"/>
<path d="M4108 2604 c2 -39 -1 -71 -7 -77 -8 -8 -11 -6 -11 6 0 9 -4 17 -10
17 -16 0 -11 -27 6 -34 8 -3 24 -1 35 4 16 9 19 22 19 80 0 60 -3 70 -17 70
-16 0 -18 -8 -15 -66z"/>
<path d="M3636 1876 c3 -9 10 -16 14 -16 4 0 20 -30 36 -66 l28 -66 17 34 c20
36 26 65 7 34 -10 -17 -13 -13 -32 35 -18 44 -27 55 -49 57 -21 3 -26 0 -21
-12z"/>
<path d="M3765 1860 c-19 -37 -19 -54 0 -20 14 24 14 22 15 -37 0 -40 -4 -63
-12 -66 -7 -3 5 -5 27 -5 22 0 34 2 28 5 -17 6 -17 125 -1 141 9 9 6 12 -15
12 -19 0 -31 -8 -42 -30z"/>
<path d="M3965 1810 c0 -73 2 -80 20 -80 18 0 20 5 17 45 -3 37 -1 45 13 45
14 0 16 -8 13 -45 -3 -40 -1 -45 17 -45 19 0 20 5 15 53 -5 49 -6 52 -32 50
-25 -2 -28 2 -28 28 0 21 -5 29 -17 29 -16 0 -18 -10 -18 -80z"/>
<path d="M4257 1882 c19 -12 12 -137 -7 -137 -19 0 -26 61 -9 81 9 11 8 14 -3
14 -23 0 -38 -22 -38 -56 0 -40 15 -52 65 -52 l40 -1 -3 80 c-3 78 -4 79 -30
79 -16 0 -22 -3 -15 -8z"/>
<path d="M4340 1876 c0 -9 7 -16 16 -16 17 0 14 22 -4 28 -7 2 -12 -3 -12 -12z"/>
<path d="M3868 1829 c-21 -12 -24 -69 -6 -87 15 -15 55 -16 64 0 4 7 3 8 -5 4
-19 -12 -41 14 -41 50 0 25 4 34 16 34 11 0 15 -6 11 -20 -4 -15 0 -20 15 -20
19 0 19 2 6 23 -18 26 -36 31 -60 16z"/>
<path d="M4102 1828 c-17 -17 -15 -28 4 -28 10 0 14 6 10 15 -4 10 1 15 14 15
32 0 24 -34 -10 -47 -20 -7 -30 -18 -30 -32 0 -17 6 -20 48 -19 l47 0 -3 41
c-3 23 -9 48 -14 55 -13 15 -50 16 -66 0z m48 -62 c0 -8 -4 -17 -9 -21 -12 -7
-24 12 -16 25 9 15 25 12 25 -4z"/>
<path d="M4335 1785 c0 -48 2 -55 20 -55 18 0 20 5 17 55 -3 43 -7 55 -20 55
-14 0 -17 -10 -17 -55z"/>
<path d="M4412 1828 c-17 -17 -15 -28 4 -28 10 0 14 6 10 15 -4 10 1 15 14 15
32 0 24 -34 -10 -47 -20 -7 -30 -18 -30 -32 0 -17 6 -20 48 -19 l47 0 -3 41
c-3 23 -9 48 -14 55 -13 15 -50 16 -66 0z m48 -62 c0 -8 -4 -17 -9 -21 -12 -7
-24 12 -16 25 9 15 25 12 25 -4z"/>
<path d="M3636 1745 c-4 -10 1 -15 16 -15 17 0 18 2 8 15 -7 8 -14 15 -15 15
-2 0 -5 -7 -9 -15z"/>
<path d="M4259 1010 c-22 -19 -22 -20 -2 -8 19 11 25 10 40 -4 14 -15 15 -22
5 -45 l-12 -28 20 24 c25 29 23 48 -6 68 -19 12 -24 11 -45 -7z"/>
<path d="M4158 945 c-2 -62 0 -75 12 -75 12 0 14 13 12 75 -2 41 -7 75 -12 75
-5 0 -10 -34 -12 -75z"/>
<path d="M4369 1003 c-17 -20 -17 -97 1 -118 21 -26 29 -17 13 16 -13 25 -14
41 -6 75 11 49 11 51 -8 27z"/>
<path d="M4424 1013 c12 -21 9 -112 -4 -128 -9 -11 -9 -15 -1 -15 7 0 18 15
26 34 17 40 11 89 -13 108 -12 10 -14 10 -8 1z"/>
<path d="M4260 895 l-23 -25 46 0 c26 0 47 5 47 10 0 6 -14 10 -31 10 -27 0
-30 2 -19 15 20 25 5 17 -20 -10z"/>
<path d="M4697 3933 c-11 -10 -8 -51 4 -58 7 -5 5 -13 -6 -25 -13 -15 -14 -23
-5 -39 6 -12 16 -21 22 -21 9 0 9 3 0 12 -15 15 -16 45 -2 53 18 11 42 -17 37
-42 -3 -19 -2 -21 9 -12 18 15 18 44 -1 59 -14 12 -14 15 0 30 9 9 13 25 9 34
-9 25 -22 19 -17 -8 3 -13 0 -27 -6 -31 -17 -10 -43 16 -38 37 5 19 4 22 -6
11z"/>
<path d="M4799 3923 c-17 -20 -17 -97 1 -118 21 -26 29 -17 13 16 -13 25 -14
41 -6 75 11 49 11 51 -8 27z"/>
<path d="M4854 3933 c12 -21 9 -112 -4 -128 -9 -11 -9 -15 -1 -15 7 0 18 15
26 34 17 40 11 89 -13 108 -12 10 -14 10 -8 1z"/>
<path d="M4985 3540 l0 -80 35 0 c23 0 30 3 22 9 -8 4 -12 21 -10 37 l3 28 25
-37 c17 -25 33 -37 49 -37 l23 0 -27 36 c-25 33 -26 38 -11 46 9 5 16 20 16
34 0 29 -31 44 -88 44 l-37 0 0 -80z m80 35 c0 -20 -6 -31 -17 -33 -15 -3 -18
4 -18 33 0 29 3 36 18 33 11 -2 17 -13 17 -33z"/>
<path d="M5160 3606 c0 -9 7 -16 16 -16 9 0 14 5 12 12 -6 18 -28 21 -28 4z"/>
<path d="M5550 3606 c0 -9 7 -16 16 -16 9 0 14 5 12 12 -6 18 -28 21 -28 4z"/>
<path d="M5926 3543 c19 -42 37 -79 39 -81 2 -3 9 8 15 23 7 17 7 31 2 34 -6
3 -17 24 -26 45 -13 32 -14 41 -4 48 8 5 -1 8 -24 8 l-37 0 35 -77z"/>
<path d="M6007 3600 c3 -12 6 -19 7 -18 1 2 8 11 15 21 12 15 11 17 -7 17 -15
0 -19 -5 -15 -20z"/>
<path d="M6070 3606 c0 -9 7 -16 16 -16 9 0 14 5 12 12 -6 18 -28 21 -28 4z"/>
<path d="M6135 3540 c0 -73 2 -80 20 -80 19 0 20 5 15 77 -4 59 -9 79 -20 81
-12 2 -15 -12 -15 -78z"/>
<path d="M5155 3515 c0 -48 2 -55 20 -55 18 0 20 5 17 55 -3 43 -7 55 -20 55
-14 0 -17 -10 -17 -55z"/>
<path d="M5225 3514 c0 -47 2 -54 20 -54 18 0 20 5 17 45 -3 37 -1 45 13 45
14 0 16 -8 13 -45 -3 -40 -1 -45 17 -45 17 0 20 7 20 42 0 32 4 43 15 43 11 0
15 -11 15 -43 0 -36 3 -42 21 -42 19 0 20 4 14 45 -9 57 -23 74 -49 58 -10 -7
-22 -9 -26 -5 -4 4 -25 8 -48 8 l-42 1 0 -53z"/>
<path d="M5415 3514 c0 -47 2 -54 20 -54 18 0 20 5 17 45 -3 37 -1 45 13 45
14 0 16 -8 13 -45 -3 -40 -1 -45 17 -45 19 0 20 5 15 52 l-5 53 -45 1 -45 1 0
-53z"/>
<path d="M5545 3515 c0 -48 2 -55 20 -55 18 0 20 5 17 55 -3 43 -7 55 -20 55
-14 0 -17 -10 -17 -55z"/>
<path d="M5616 3555 c-19 -19 -21 -66 -4 -83 15 -15 55 -16 64 0 4 7 3 8 -5 4
-19 -12 -41 14 -41 50 0 24 5 34 15 34 8 0 15 -7 15 -15 0 -8 5 -15 11 -15 6
0 9 8 7 18 -4 23 -41 27 -62 7z"/>
<path d="M5717 3528 c7 -65 8 -66 55 -66 l43 0 -3 54 c-3 42 -7 54 -20 54 -13
0 -17 -10 -17 -47 0 -64 -23 -70 -27 -6 -2 35 -7 49 -20 51 -14 3 -15 -4 -11
-40z"/>
<path d="M5996 3555 c-9 -26 -7 -32 5 -12 6 10 9 21 6 23 -2 3 -7 -2 -11 -11z"/>
<path d="M6065 3515 c0 -48 2 -55 20 -55 18 0 20 5 17 55 -3 43 -7 55 -20 55
-14 0 -17 -10 -17 -55z"/>
<path d="M6206 3555 c-19 -19 -21 -66 -4 -83 15 -15 55 -16 64 0 4 7 3 8 -5 4
-19 -12 -41 14 -41 50 0 24 5 34 15 34 8 0 15 -7 15 -15 0 -8 5 -15 11 -15 6
0 9 8 7 18 -4 23 -41 27 -62 7z"/>
<path d="M6308 3559 c-21 -12 -24 -69 -6 -87 15 -15 55 -16 64 0 4 7 3 8 -5 4
-19 -12 -41 14 -41 50 0 25 4 34 16 34 11 0 15 -6 11 -20 -4 -15 0 -20 15 -20
19 0 19 2 6 23 -18 26 -36 31 -60 16z"/>
<path d="M6412 3558 c-17 -17 -15 -28 4 -28 10 0 14 6 10 15 -4 10 1 15 14 15
32 0 24 -34 -10 -47 -20 -7 -30 -18 -30 -32 0 -17 6 -20 48 -19 l47 0 -3 41
c-3 23 -9 48 -14 55 -13 15 -50 16 -66 0z m48 -62 c0 -8 -4 -17 -9 -21 -12 -7
-24 12 -16 25 9 15 25 12 25 -4z"/>
<path d="M6485 2721 l0 -81 35 1 c19 0 29 3 23 6 -7 2 -13 17 -13 33 0 24 5
29 34 34 23 4 37 14 41 27 10 31 -16 51 -72 56 l-48 5 0 -81z m80 34 c0 -20
-6 -31 -17 -33 -15 -3 -18 4 -18 33 0 29 3 36 18 33 11 -2 17 -13 17 -33z"/>
<path d="M6630 2786 c0 -9 7 -16 16 -16 17 0 14 22 -4 28 -7 2 -12 -3 -12 -12z"/>
<path d="M7040 2786 c0 -9 7 -16 16 -16 9 0 14 5 12 12 -6 18 -28 21 -28 4z"/>
<path d="M6694 2763 c-5 -10 -8 -42 -6 -70 3 -43 7 -53 22 -53 11 0 22 5 26
12 4 7 3 8 -4 4 -9 -5 -12 6 -12 38 0 26 5 46 13 49 10 4 10 6 0 6 -7 1 -13 8
-13 16 0 20 -13 19 -26 -2z"/>
<path d="M6974 2763 c-5 -10 -8 -42 -6 -70 3 -43 7 -53 22 -53 11 0 22 5 26
12 4 7 3 8 -4 4 -9 -5 -12 6 -12 38 0 26 5 46 13 49 10 4 10 6 0 6 -7 1 -13 8
-13 16 0 20 -13 19 -26 -2z"/>
<path d="M6625 2695 c0 -48 2 -55 20 -55 18 0 20 5 17 55 -3 43 -7 55 -20 55
-14 0 -17 -10 -17 -55z"/>
<path d="M6778 2739 c-21 -12 -24 -69 -6 -87 15 -15 55 -16 64 0 4 7 3 8 -5 4
-19 -12 -41 14 -41 50 0 25 4 34 16 34 11 0 15 -6 11 -20 -4 -15 0 -20 15 -20
19 0 19 2 6 23 -18 26 -36 31 -60 16z"/>
<path d="M6867 2743 c-15 -14 -6 -43 19 -59 15 -10 23 -23 19 -31 -3 -9 0 -13
7 -11 25 9 21 42 -8 65 -31 24 -25 45 6 25 17 -10 20 -10 20 3 0 15 -50 22
-63 8z"/>
<path d="M7035 2695 c0 -48 2 -55 20 -55 18 0 20 5 17 55 -3 43 -7 55 -20 55
-14 0 -17 -10 -17 -55z"/>
<path d="M6860 2657 c0 -10 8 -17 18 -17 9 0 13 4 7 8 -5 4 -13 11 -17 16 -5
5 -8 2 -8 -7z"/>
<path d="M5572 2658 c-13 -13 -16 -47 -4 -65 4 -6 21 -13 37 -15 l30 -3 -27
-27 c-29 -30 -28 -34 4 -17 29 15 50 72 39 103 -16 40 -27 37 -23 -6 4 -37 3
-39 -19 -36 -20 2 -24 9 -24 41 0 20 0 37 0 37 -1 0 -6 -5 -13 -12z"/>
<path d="M5686 2662 c-2 -4 11 -6 30 -4 41 5 42 -2 15 -81 -11 -32 -17 -57
-12 -57 6 0 51 125 51 143 0 10 -78 9 -84 -1z"/>
<path d="M5218 1865 c-2 -62 0 -75 12 -75 12 0 14 13 12 75 -2 41 -7 75 -12
75 -5 0 -10 -34 -12 -75z"/>
<path d="M5349 1923 c-10 -11 -10 -14 -1 -9 9 5 12 -4 12 -33 0 -37 -2 -41
-26 -41 -20 0 -25 4 -20 16 5 14 4 15 -9 4 -24 -20 -18 -30 20 -30 28 0 35 -4
35 -20 0 -11 5 -20 10 -20 6 0 10 9 10 19 0 11 6 22 13 24 10 4 10 6 0 6 -9 1
-13 18 -13 51 0 52 -8 61 -31 33z"/>
<path d="M5435 1915 c-31 -30 -34 -84 -7 -108 24 -22 39 -22 18 -1 -21 21 -20
52 3 97 22 43 19 46 -14 12z"/>
<path d="M5470 1870 c23 -23 26 -50 8 -70 -7 -8 -3 -6 10 4 12 11 22 27 22 37
0 21 -26 49 -46 49 -10 0 -9 -5 6 -20z"/>
<path d="M2825 6935 c-33 -32 -34 -83 -2 -113 27 -26 58 -31 33 -6 -19 19 -22
104 -4 122 18 18 46 14 58 -7 15 -30 12 -97 -6 -115 -12 -13 -13 -16 -1 -16
24 0 57 45 57 79 0 42 -38 81 -80 81 -19 0 -40 -9 -55 -25z"/>
<path d="M3257 6952 c19 -12 12 -137 -7 -137 -19 0 -26 61 -9 81 9 11 8 14 -3
14 -23 0 -38 -22 -38 -56 0 -40 15 -52 65 -52 l40 -1 -3 80 c-3 78 -4 79 -30
79 -16 0 -22 -3 -15 -8z"/>
<path d="M2985 6855 c0 -48 2 -55 20 -55 18 0 20 5 17 45 -4 46 -4 46 23 39
21 -5 26 -3 23 7 -2 7 -22 14 -44 16 l-39 2 0 -54z"/>
<path d="M3092 6898 c-17 -17 -15 -28 4 -28 10 0 14 6 10 15 -4 10 1 15 14 15
32 0 24 -34 -10 -47 -20 -7 -30 -18 -30 -32 0 -17 6 -20 48 -19 l47 0 -3 41
c-3 23 -9 48 -14 55 -13 15 -50 16 -66 0z m48 -62 c0 -8 -4 -17 -9 -21 -12 -7
-24 12 -16 25 9 15 25 12 25 -4z"/>
<path d="M3348 6899 c-21 -12 -24 -69 -6 -87 15 -15 55 -16 64 0 4 7 3 8 -5 4
-19 -12 -41 14 -41 50 0 25 4 34 16 34 11 0 15 -6 11 -20 -4 -15 0 -20 15 -20
19 0 19 2 6 23 -18 26 -36 31 -60 16z"/>
<path d="M3442 6898 c-17 -17 -15 -28 4 -28 10 0 14 6 10 15 -4 10 1 15 14 15
32 0 24 -34 -10 -47 -20 -7 -30 -18 -30 -32 0 -17 6 -20 48 -19 l47 0 -3 41
c-3 23 -9 48 -14 55 -13 15 -50 16 -66 0z m48 -62 c0 -8 -4 -17 -9 -21 -12 -7
-24 12 -16 25 9 15 25 12 25 -4z"/>
<path d="M2066 6612 c-2 -4 11 -6 30 -4 41 5 42 -2 15 -81 -11 -32 -17 -57
-12 -57 6 0 51 125 51 143 0 10 -78 9 -84 -1z"/>
<path d="M2218 6545 c-2 -62 0 -75 12 -75 12 0 14 13 12 75 -2 41 -7 75 -12
75 -5 0 -10 -34 -12 -75z"/>
<path d="M8265 6400 c0 -72 2 -80 19 -80 15 0 16 3 7 14 -7 8 -11 36 -9 63 l3
48 50 -64 50 -64 3 69 c2 37 8 74 14 81 8 10 6 13 -8 13 -17 0 -19 -7 -16 -47
l3 -48 -41 48 c-62 70 -75 65 -75 -33z"/>
<path d="M8854 6443 c-5 -10 -8 -42 -6 -70 3 -43 7 -53 22 -53 11 0 22 5 26
12 4 7 3 8 -4 4 -9 -5 -12 6 -12 38 0 26 5 46 13 49 10 4 10 6 0 6 -7 1 -13 8
-13 16 0 20 -13 19 -26 -2z"/>
<path d="M8448 6419 c-21 -12 -24 -69 -6 -87 15 -15 55 -16 64 0 4 7 3 8 -5 4
-19 -12 -41 14 -41 50 0 25 4 34 16 34 11 0 15 -6 11 -20 -4 -15 0 -20 15 -20
19 0 19 2 6 23 -18 26 -36 31 -60 16z"/>
<path d="M8542 6418 c-17 -17 -15 -28 4 -28 10 0 14 6 10 15 -4 10 1 15 14 15
32 0 24 -34 -10 -47 -20 -7 -30 -18 -30 -32 0 -17 6 -20 48 -19 l47 0 -3 41
c-3 23 -9 48 -14 55 -13 15 -50 16 -66 0z m48 -62 c0 -8 -4 -17 -9 -21 -12 -7
-24 12 -16 25 9 15 25 12 25 -4z"/>
<path d="M8655 6374 c0 -47 2 -54 20 -54 18 0 20 5 17 45 -3 37 -1 45 13 45
14 0 16 -8 13 -45 -3 -40 -1 -45 17 -45 17 0 20 7 20 42 0 32 4 43 15 43 11 0
15 -11 15 -43 0 -36 3 -42 21 -42 19 0 20 4 14 45 -9 57 -23 74 -49 58 -10 -7
-22 -9 -26 -5 -4 4 -25 8 -48 8 l-42 1 0 -53z"/>
<path d="M9407 5973 c-11 -10 -8 -51 4 -58 7 -5 5 -13 -6 -25 -13 -15 -14 -23
-5 -39 6 -12 16 -21 22 -21 9 0 9 3 0 12 -15 15 -16 45 -2 53 18 11 42 -17 37
-42 -3 -19 -2 -21 9 -12 18 15 18 44 -1 59 -14 12 -14 15 0 30 9 9 13 25 9 34
-9 25 -22 19 -17 -8 3 -13 0 -27 -6 -31 -17 -10 -43 16 -38 37 5 19 4 22 -6
11z"/>
<path d="M9516 5972 c-2 -4 11 -6 30 -4 41 5 42 -2 15 -81 -11 -32 -17 -57
-12 -57 6 0 51 125 51 143 0 10 -78 9 -84 -1z"/>
<path d="M3588 5725 c-2 -62 0 -75 12 -75 12 0 14 13 12 75 -2 41 -7 75 -12
75 -5 0 -10 -34 -12 -75z"/>
<path d="M3680 5779 c-13 -23 -11 -27 22 -43 17 -9 23 -21 23 -44 0 -29 1 -31
12 -15 7 9 13 24 13 33 0 19 -30 50 -48 50 -7 0 -12 6 -12 14 0 9 13 16 33 19
l32 4 -32 1 c-24 2 -35 -4 -43 -19z"/>
<path d="M3818 5725 c-2 -62 0 -75 12 -75 12 0 14 13 12 75 -2 41 -7 75 -12
75 -5 0 -10 -34 -12 -75z"/>
<path d="M1596 5672 c-2 -4 11 -6 30 -4 41 5 42 -2 15 -81 -11 -32 -17 -57
-12 -57 6 0 51 125 51 143 0 10 -78 9 -84 -1z"/>
<path d="M1730 5659 c-13 -23 -11 -27 22 -43 17 -9 23 -21 23 -44 0 -29 1 -31
12 -15 7 9 13 24 13 33 0 19 -30 50 -48 50 -7 0 -12 6 -12 14 0 9 13 16 33 19
l32 4 -32 1 c-24 2 -35 -4 -43 -19z"/>
<path d="M3660 5660 c0 -5 12 -10 28 -9 24 0 25 1 7 9 -27 12 -35 12 -35 0z"/>
<path d="M1710 5540 c0 -5 12 -10 28 -9 24 0 25 1 7 9 -27 12 -35 12 -35 0z"/>
<path d="M10328 5468 c7 -7 12 -37 12 -68 0 -31 -5 -61 -12 -68 -9 -9 -3 -12
28 -11 21 0 33 3 27 6 -17 6 -17 125 -1 141 9 9 3 12 -27 12 -30 0 -36 -3 -27
-12z"/>
<path d="M10630 5466 c0 -9 7 -16 16 -16 17 0 14 22 -4 28 -7 2 -12 -3 -12
-12z"/>
<path d="M10422 5418 c-17 -17 -15 -28 4 -28 10 0 14 6 10 15 -4 10 1 15 14
15 32 0 24 -34 -10 -47 -20 -7 -30 -18 -30 -32 0 -17 6 -20 48 -19 l47 0 -3
41 c-3 23 -9 48 -14 55 -13 15 -50 16 -66 0z m48 -62 c0 -8 -4 -17 -9 -21 -12
-7 -24 12 -16 25 9 15 25 12 25 -4z"/>
<path d="M10537 5423 c-15 -14 -6 -43 19 -59 15 -10 23 -23 19 -31 -3 -9 0
-13 7 -11 25 9 21 42 -8 65 -31 24 -25 45 6 25 17 -10 20 -10 20 3 0 15 -50
22 -63 8z"/>
<path d="M10625 5375 c0 -48 2 -55 20 -55 18 0 20 5 17 55 -3 43 -7 55 -20 55
-14 0 -17 -10 -17 -55z"/>
<path d="M10530 5337 c0 -10 8 -17 18 -17 9 0 13 4 7 8 -5 4 -13 11 -17 16 -5
5 -8 2 -8 -7z"/>
<path d="M1092 5180 c-5 -14 -21 -51 -35 -82 l-26 -58 22 0 c15 0 18 3 10 8
-10 6 -9 17 4 50 9 23 19 42 22 42 3 0 13 -20 22 -45 11 -31 13 -46 5 -49 -6
-2 5 -5 25 -5 l35 -1 -26 58 c-15 31 -31 68 -37 82 l-11 25 -10 -25z"/>
<path d="M1467 5192 c19 -12 12 -137 -7 -137 -19 0 -26 61 -9 81 9 11 8 14 -3
14 -23 0 -38 -22 -38 -56 0 -40 15 -52 65 -52 l40 -1 -3 80 c-3 78 -4 79 -30
79 -16 0 -22 -3 -15 -8z"/>
<path d="M1205 5095 c0 -48 2 -55 20 -55 18 0 20 5 17 45 -4 46 -4 46 23 39
21 -5 26 -3 23 7 -2 7 -22 14 -44 16 l-39 2 0 -54z"/>
<path d="M1312 5138 c-17 -17 -15 -28 4 -28 10 0 14 6 10 15 -4 10 1 15 14 15
32 0 24 -34 -10 -47 -20 -7 -30 -18 -30 -32 0 -17 6 -20 48 -19 l47 0 -3 41
c-3 23 -9 48 -14 55 -13 15 -50 16 -66 0z m48 -62 c0 -8 -4 -17 -9 -21 -12 -7
-24 12 -16 25 9 15 25 12 25 -4z"/>
<path d="M10759 4860 c-22 -19 -22 -20 -2 -8 19 11 25 10 40 -4 14 -15 15 -22
5 -45 l-12 -28 20 24 c25 29 23 48 -6 68 -19 12 -24 11 -45 -7z"/>
<path d="M10632 4858 c-13 -13 -16 -47 -4 -65 4 -6 21 -13 37 -15 l30 -3 -27
-27 c-29 -30 -28 -34 4 -17 29 15 50 72 39 103 -16 40 -27 37 -23 -6 4 -37 3
-39 -19 -36 -20 2 -24 9 -24 41 0 20 0 37 0 37 -1 0 -6 -5 -13 -12z"/>
<path d="M10760 4745 l-23 -25 46 0 c26 0 47 5 47 10 0 6 -14 10 -31 10 -27 0
-30 2 -19 15 20 25 5 17 -20 -10z"/>
<path d="M4456 4655 c-9 -9 -16 -23 -16 -31 0 -14 7 -21 60 -62 21 -17 22 -22
11 -36 -9 -10 -9 -16 -2 -16 16 0 42 45 36 62 -4 9 -22 24 -41 34 -19 10 -34
26 -34 36 0 26 36 23 54 -4 l16 -22 0 25 c0 21 -5 25 -34 27 -21 2 -40 -4 -50
-13z"/>
<path d="M4580 4656 c0 -9 7 -16 16 -16 9 0 14 5 12 12 -6 18 -28 21 -28 4z"/>
<path d="M4634 4654 c3 -9 6 -44 6 -78 0 -52 3 -62 18 -62 14 0 17 9 15 51 -1
27 -2 62 -2 78 -1 21 -6 27 -22 27 -15 0 -19 -4 -15 -16z"/>
<path d="M4770 4656 c0 -9 7 -16 16 -16 9 0 14 5 12 12 -6 18 -28 21 -28 4z"/>
<path d="M4575 4565 c0 -48 2 -55 20 -55 18 0 20 5 17 55 -3 43 -7 55 -20 55
-14 0 -17 -10 -17 -55z"/>
<path d="M4697 4594 c13 -21 15 -32 6 -55 -12 -32 -3 -38 21 -13 31 30 10 94
-30 94 -12 0 -12 -4 3 -26z"/>
<path d="M4765 4565 c0 -48 2 -55 20 -55 18 0 20 5 17 55 -3 43 -7 55 -20 55
-14 0 -17 -10 -17 -55z"/>
<path d="M4837 4578 c7 -65 8 -66 55 -66 l43 0 -3 54 c-3 42 -7 54 -20 54 -13
0 -17 -10 -17 -47 0 -64 -23 -70 -27 -6 -2 35 -7 49 -20 51 -14 3 -15 -4 -11
-40z"/>
<path d="M6170 4601 c14 -27 13 -114 -2 -129 -9 -9 -3 -12 28 -11 21 0 33 3
27 6 -9 3 -13 28 -13 74 0 65 1 69 23 69 13 0 28 -5 35 -12 9 -9 12 -8 12 5 0
14 -10 17 -60 17 -57 0 -60 -1 -50 -19z"/>
<path d="M6234 4552 c-9 -13 -8 -20 2 -30 12 -11 14 -8 14 18 0 35 -1 36 -16
12z"/>
<path d="M6312 4558 c-17 -17 -15 -28 4 -28 10 0 14 6 10 15 -4 10 1 15 14 15
32 0 24 -34 -10 -47 -20 -7 -30 -18 -30 -32 0 -17 6 -20 48 -19 l47 0 -3 41
c-3 23 -9 48 -14 55 -13 15 -50 16 -66 0z m48 -62 c0 -8 -4 -17 -9 -21 -12 -7
-24 12 -16 25 9 15 25 12 25 -4z"/>
<path d="M6432 4558 c-16 -16 -15 -45 1 -51 9 -3 9 -8 1 -18 -6 -8 -11 -26
-12 -41 -1 -22 4 -29 23 -34 13 -3 30 -4 37 -1 7 3 1 6 -14 6 -40 1 -38 31 2
31 22 0 30 -5 30 -17 0 -13 3 -14 11 -6 19 19 3 40 -35 47 -25 5 -34 11 -29
19 4 7 6 24 4 39 -2 21 2 28 14 28 14 0 16 -7 13 -30 -6 -40 22 -38 33 2 6 22
3 27 -15 32 -33 9 -51 7 -64 -6z"/>
<path d="M6552 4558 c-17 -17 -15 -28 4 -28 10 0 14 6 10 15 -4 10 1 15 14 15
32 0 24 -34 -10 -47 -20 -7 -30 -18 -30 -32 0 -17 6 -20 48 -19 l47 0 -3 41
c-3 23 -9 48 -14 55 -13 15 -50 16 -66 0z m48 -62 c0 -8 -4 -17 -9 -21 -12 -7
-24 12 -16 25 9 15 25 12 25 -4z"/>
<path d="M6655 4515 c0 -48 2 -55 20 -55 18 0 20 5 17 45 -4 46 -4 46 23 39
21 -5 26 -3 23 7 -2 7 -22 14 -44 16 l-39 2 0 -54z"/>
<path d="M6772 4558 c-17 -17 -15 -28 4 -28 10 0 14 6 10 15 -4 10 1 15 14 15
32 0 24 -34 -10 -47 -20 -7 -30 -18 -30 -32 0 -17 6 -20 48 -19 l47 0 -3 41
c-3 23 -9 48 -14 55 -13 15 -50 16 -66 0z m48 -62 c0 -8 -4 -17 -9 -21 -12 -7
-24 12 -16 25 9 15 25 12 25 -4z"/>
<path d="M6877 4563 c-15 -14 -6 -43 19 -59 15 -10 23 -23 19 -31 -3 -9 0 -13
7 -11 25 9 21 42 -8 65 -31 24 -25 45 6 25 17 -10 20 -10 20 3 0 15 -50 22
-63 8z"/>
<path d="M4441 4538 c-1 -24 3 -28 27 -27 15 1 20 3 11 6 -9 2 -21 14 -27 26
-10 21 -11 21 -11 -5z"/>
<path d="M5402 4488 c-13 -13 -16 -47 -4 -65 4 -6 21 -13 37 -15 l30 -3 -27
-27 c-29 -30 -28 -34 4 -17 29 15 50 72 39 103 -16 40 -27 37 -23 -6 4 -37 3
-39 -19 -36 -20 2 -24 9 -24 41 0 20 0 37 0 37 -1 0 -6 -5 -13 -12z"/>
<path d="M5522 4488 c-13 -13 -16 -47 -4 -65 4 -6 21 -13 37 -15 l30 -3 -27
-27 c-29 -30 -28 -34 4 -17 29 15 50 72 39 103 -16 40 -27 37 -23 -6 4 -37 3
-39 -19 -36 -20 2 -24 9 -24 41 0 20 0 37 0 37 -1 0 -6 -5 -13 -12z"/>
<path d="M6870 4477 c0 -10 8 -17 18 -17 9 0 13 4 7 8 -5 4 -13 11 -17 16 -5
5 -8 2 -8 -7z"/>
<path d="M1338 4175 c-2 -62 0 -75 12 -75 12 0 14 13 12 75 -2 41 -7 75 -12
75 -5 0 -10 -34 -12 -75z"/>
<path d="M1458 4175 c-2 -62 0 -75 12 -75 12 0 14 13 12 75 -2 41 -7 75 -12
75 -5 0 -10 -34 -12 -75z"/>
<path d="M1557 4243 c-11 -10 -8 -51 4 -58 7 -5 5 -13 -6 -25 -13 -15 -14 -23
-5 -39 6 -12 16 -21 22 -21 9 0 9 3 0 12 -15 15 -16 45 -2 53 18 11 42 -17 37
-42 -3 -19 -2 -21 9 -12 18 15 18 44 -1 59 -14 12 -14 15 0 30 9 9 13 25 9 34
-9 25 -22 19 -17 -8 3 -13 0 -27 -6 -31 -17 -10 -43 16 -38 37 5 19 4 22 -6
11z"/>
<path d="M11106 4053 c19 -42 37 -79 39 -81 2 -3 9 8 15 23 7 17 7 31 2 34 -6
3 -17 24 -26 45 -13 32 -14 41 -4 48 8 5 -1 8 -24 8 l-37 0 35 -77z"/>
<path d="M11187 4110 c3 -12 6 -19 7 -18 1 2 8 11 15 21 12 15 11 17 -7 17
-15 0 -19 -5 -15 -20z"/>
<path d="M11445 4050 c0 -73 2 -80 20 -80 19 0 20 5 15 77 -4 59 -9 79 -20 81
-12 2 -15 -12 -15 -78z"/>
<path d="M11650 4116 c0 -9 7 -16 16 -16 9 0 14 5 12 12 -6 18 -28 21 -28 4z"/>
<path d="M11176 4065 c-9 -26 -7 -32 5 -12 6 10 9 21 6 23 -2 3 -7 -2 -11 -11z"/>
<path d="M11252 4068 c-17 -17 -15 -28 4 -28 10 0 14 6 10 15 -4 10 1 15 14
15 32 0 24 -34 -10 -47 -20 -7 -30 -18 -30 -32 0 -17 6 -20 48 -19 l47 0 -3
41 c-3 23 -9 48 -14 55 -13 15 -50 16 -66 0z m48 -62 c0 -8 -4 -17 -9 -21 -12
-7 -24 12 -16 25 9 15 25 12 25 -4z"/>
<path d="M11357 4073 c-15 -14 -6 -43 19 -59 15 -10 23 -23 19 -31 -3 -9 0
-13 7 -11 25 9 21 42 -8 65 -31 24 -25 45 6 25 17 -10 20 -10 20 3 0 15 -50
22 -63 8z"/>
<path d="M11517 4038 c7 -65 8 -66 55 -66 l43 0 -3 54 c-3 42 -7 54 -20 54
-13 0 -17 -10 -17 -47 0 -64 -23 -70 -27 -6 -2 35 -7 49 -20 51 -14 3 -15 -4
-11 -40z"/>
<path d="M11645 4025 c0 -48 2 -55 20 -55 18 0 20 5 17 55 -3 43 -7 55 -20 55
-14 0 -17 -10 -17 -55z"/>
<path d="M11350 3987 c0 -10 8 -17 18 -17 9 0 13 4 7 8 -5 4 -13 11 -17 16 -5
5 -8 2 -8 -7z"/>
<path d="M10709 3050 c-22 -19 -22 -20 -2 -8 19 11 25 10 40 -4 14 -15 15 -22
5 -45 l-12 -28 20 24 c25 29 23 48 -6 68 -19 12 -24 11 -45 -7z"/>
<path d="M10498 2985 c-2 -62 0 -75 12 -75 12 0 14 13 12 75 -2 41 -7 75 -12
75 -5 0 -10 -34 -12 -75z"/>
<path d="M10619 3043 c-10 -11 -10 -14 -1 -9 9 5 12 -4 12 -33 0 -37 -2 -41
-26 -41 -20 0 -25 4 -20 16 5 14 4 15 -9 4 -24 -20 -18 -30 20 -30 28 0 35 -4
35 -20 0 -11 5 -20 10 -20 6 0 10 9 10 19 0 11 6 22 13 24 10 4 10 6 0 6 -9 1
-13 18 -13 51 0 52 -8 61 -31 33z"/>
<path d="M10710 2935 l-23 -25 46 0 c26 0 47 5 47 10 0 6 -14 10 -31 10 -27 0
-30 2 -19 15 20 25 5 17 -20 -10z"/>
<path d="M7679 2900 c-22 -19 -22 -20 -2 -8 19 11 25 10 40 -4 14 -15 15 -22
5 -45 l-12 -28 20 24 c25 29 23 48 -6 68 -19 12 -24 11 -45 -7z"/>
<path d="M7818 2835 c-2 -62 0 -75 12 -75 12 0 14 13 12 75 -2 41 -7 75 -12
75 -5 0 -10 -34 -12 -75z"/>
<path d="M7928 2835 c-2 -62 0 -75 12 -75 12 0 14 13 12 75 -2 41 -7 75 -12
75 -5 0 -10 -34 -12 -75z"/>
<path d="M2298 2765 c-2 -62 0 -75 12 -75 12 0 14 13 12 75 -2 41 -7 75 -12
75 -5 0 -10 -34 -12 -75z"/>
<path d="M2408 2765 c-2 -62 0 -75 12 -75 12 0 14 13 12 75 -2 41 -7 75 -12
75 -5 0 -10 -34 -12 -75z"/>
<path d="M2528 2765 c-2 -62 0 -75 12 -75 12 0 14 13 12 75 -2 41 -7 75 -12
75 -5 0 -10 -34 -12 -75z"/>
<path d="M7680 2785 l-23 -25 46 0 c26 0 47 5 47 10 0 6 -14 10 -31 10 -27 0
-30 2 -19 15 20 25 5 17 -20 -10z"/>
<path d="M3046 2242 c-2 -4 11 -6 30 -4 41 5 42 -2 15 -81 -11 -32 -17 -57
-12 -57 6 0 51 125 51 143 0 10 -78 9 -84 -1z"/>
<path d="M3169 2233 c-17 -20 -17 -97 1 -118 21 -26 29 -17 13 16 -13 25 -14
41 -6 75 11 49 11 51 -8 27z"/>
<path d="M3224 2243 c12 -21 9 -112 -4 -128 -9 -11 -9 -15 -1 -15 7 0 18 15
26 34 17 40 11 89 -13 108 -12 10 -14 10 -8 1z"/>
<path d="M10542 2208 c-13 -13 -16 -47 -4 -65 4 -6 21 -13 37 -15 l30 -3 -27
-27 c-29 -30 -28 -34 4 -17 29 15 50 72 39 103 -16 40 -27 37 -23 -6 4 -37 3
-39 -19 -36 -20 2 -24 9 -24 41 0 20 0 37 0 37 -1 0 -6 -5 -13 -12z"/>
<path d="M10657 2213 c-11 -10 -8 -51 4 -58 7 -5 5 -13 -6 -25 -13 -15 -14
-23 -5 -39 6 -12 16 -21 22 -21 9 0 9 3 0 12 -15 15 -16 45 -2 53 18 11 42
-17 37 -42 -3 -19 -2 -21 9 -12 18 15 18 44 -1 59 -14 12 -14 15 0 30 9 9 13
25 9 34 -9 25 -22 19 -17 -8 3 -13 0 -27 -6 -31 -17 -10 -43 16 -38 37 5 19 4
22 -6 11z"/>
<path d="M11625 1990 l0 -80 35 1 c19 0 29 3 23 6 -7 2 -13 20 -13 39 0 33 2
35 28 32 21 -2 28 -9 30 -32 2 -16 -2 -32 -10 -37 -8 -6 1 -9 27 -9 30 0 36 3
27 12 -15 15 -16 102 -2 129 10 17 7 19 -27 19 -29 0 -34 -3 -25 -12 7 -7 12
-22 12 -35 0 -19 -5 -23 -30 -23 -25 0 -30 4 -30 23 0 13 5 28 12 35 9 9 4 12
-22 12 l-35 0 0 -80z"/>
<path d="M11810 2056 c0 -9 7 -16 16 -16 9 0 14 5 12 12 -6 18 -28 21 -28 4z"/>
<path d="M11805 1965 c0 -48 2 -55 20 -55 18 0 20 5 17 55 -3 43 -7 55 -20 55
-14 0 -17 -10 -17 -55z"/>
<path d="M11875 1965 c0 -48 2 -55 20 -55 18 0 20 5 17 45 -4 46 -4 46 23 39
21 -5 26 -3 23 7 -2 7 -22 14 -44 16 l-39 2 0 -54z"/>
<path d="M11977 2013 c-15 -14 -6 -43 19 -59 15 -10 23 -23 19 -31 -3 -9 0
-13 7 -11 25 9 21 42 -8 65 -31 24 -25 45 6 25 17 -10 20 -10 20 3 0 15 -50
22 -63 8z"/>
<path d="M12076 2004 c-19 -18 -21 -65 -4 -82 20 -20 23 -14 23 35 0 27 5 48
12 50 18 6 28 -44 14 -73 -12 -27 0 -32 23 -8 20 20 20 43 0 72 -18 26 -46 28
-68 6z"/>
<path d="M12180 2016 c0 -2 11 -27 24 -57 22 -52 23 -52 36 -30 9 18 9 25 0
31 -7 4 -13 19 -13 34 -2 20 -7 26 -24 26 -13 0 -23 -2 -23 -4z"/>
<path d="M12254 1994 c-2 -28 -1 -28 15 4 9 17 9 22 -1 22 -7 0 -14 -12 -14
-26z"/>
<path d="M12302 2008 c-17 -17 -15 -28 4 -28 10 0 14 6 10 15 -4 10 1 15 14
15 32 0 24 -34 -10 -47 -20 -7 -30 -18 -30 -32 0 -17 6 -20 48 -19 l47 0 -3
41 c-3 23 -9 48 -14 55 -13 15 -50 16 -66 0z m48 -62 c0 -8 -4 -17 -9 -21 -12
-7 -24 12 -16 25 9 15 25 12 25 -4z"/>
<path d="M8957 1963 c-11 -10 -8 -51 4 -58 7 -5 5 -13 -6 -25 -13 -15 -14 -23
-5 -39 6 -12 16 -21 22 -21 9 0 9 3 0 12 -15 15 -16 45 -2 53 18 11 42 -17 37
-42 -3 -19 -2 -21 9 -12 18 15 18 44 -1 59 -14 12 -14 15 0 30 9 9 13 25 9 34
-9 25 -22 19 -17 -8 3 -13 0 -27 -6 -31 -17 -10 -43 16 -38 37 5 19 4 22 -6
11z"/>
<path d="M9070 1949 c-13 -23 -11 -27 22 -43 17 -9 23 -21 23 -44 0 -29 1 -31
12 -15 7 9 13 24 13 33 0 19 -30 50 -48 50 -7 0 -12 6 -12 14 0 9 13 16 33 19
l32 4 -32 1 c-24 2 -35 -4 -43 -19z"/>
<path d="M11970 1927 c0 -10 8 -17 18 -17 9 0 13 4 7 8 -5 4 -13 11 -17 16 -5
5 -8 2 -8 -7z"/>
<path d="M7258 1785 c-2 -62 0 -75 12 -75 12 0 14 13 12 75 -2 41 -7 75 -12
75 -5 0 -10 -34 -12 -75z"/>
<path d="M7349 1843 c-17 -20 -17 -97 1 -118 21 -26 29 -17 13 16 -13 25 -14
41 -6 75 11 49 11 51 -8 27z"/>
<path d="M7404 1853 c12 -21 9 -112 -4 -128 -9 -11 -9 -15 -1 -15 7 0 18 15
26 34 17 40 11 89 -13 108 -12 10 -14 10 -8 1z"/>
<path d="M7488 1785 c-2 -62 0 -75 12 -75 12 0 14 13 12 75 -2 41 -7 75 -12
75 -5 0 -10 -34 -12 -75z"/>
<path d="M9050 1830 c0 -5 12 -10 28 -9 24 0 25 1 7 9 -27 12 -35 12 -35 0z"/>
<path d="M9641 1749 c7 -77 15 -89 65 -89 43 0 54 16 54 80 0 31 5 61 12 68 9
9 8 12 -7 12 -18 0 -20 -7 -20 -72 l0 -73 -30 0 c-30 0 -30 0 -33 64 -2 45 1
67 10 72 8 6 0 9 -22 9 l-36 0 7 -71z"/>
<path d="M10010 1806 c0 -9 7 -16 16 -16 9 0 14 5 12 12 -6 18 -28 21 -28 4z"/>
<path d="M10410 1806 c0 -9 7 -16 16 -16 9 0 14 5 12 12 -6 18 -28 21 -28 4z"/>
<path d="M9805 1715 c0 -48 2 -55 20 -55 18 0 20 5 17 45 -4 46 -4 46 23 39
21 -5 26 -3 23 7 -2 7 -22 14 -44 16 l-39 2 0 -54z"/>
<path d="M9900 1753 c0 -13 3 -14 12 -5 7 7 18 12 25 12 10 0 6 -13 -12 -43
-14 -24 -25 -47 -25 -50 0 -4 20 -7 45 -7 33 0 45 4 45 15 0 13 -3 13 -20 3
-31 -19 -32 -5 -4 45 l26 47 -46 0 c-37 0 -46 -3 -46 -17z"/>
<path d="M10005 1715 c0 -48 2 -55 20 -55 18 0 20 5 17 55 -3 43 -7 55 -20 55
-14 0 -17 -10 -17 -55z"/>
<path d="M10086 1755 c-19 -19 -21 -66 -4 -83 15 -15 55 -16 64 0 4 7 3 8 -5
4 -19 -12 -41 14 -41 50 0 24 5 34 15 34 8 0 15 -7 15 -15 0 -8 5 -15 11 -15
6 0 9 8 7 18 -4 23 -41 27 -62 7z"/>
<path d="M10188 1759 c-21 -12 -24 -69 -6 -87 15 -15 55 -16 64 0 4 7 3 8 -5
4 -19 -12 -41 14 -41 50 0 25 4 34 16 34 11 0 15 -6 11 -20 -4 -15 0 -20 15
-20 19 0 19 2 6 23 -18 26 -36 31 -60 16z"/>
<path d="M10275 1714 c0 -47 2 -54 20 -54 18 0 20 5 17 45 -3 37 -1 45 13 45
14 0 16 -8 13 -45 -3 -40 -1 -45 17 -45 19 0 20 5 15 52 l-5 53 -45 1 -45 1 0
-53z"/>
<path d="M10405 1715 c0 -48 2 -55 20 -55 18 0 20 5 17 55 -3 43 -7 55 -20 55
-14 0 -17 -10 -17 -55z"/>
<path d="M11857 1483 c-11 -10 -8 -51 4 -58 7 -5 5 -13 -6 -25 -13 -15 -14
-23 -5 -39 6 -12 16 -21 22 -21 9 0 9 3 0 12 -15 15 -16 45 -2 53 18 11 42
-17 37 -42 -3 -19 -2 -21 9 -12 18 15 18 44 -1 59 -14 12 -14 15 0 30 9 9 13
25 9 34 -9 25 -22 19 -17 -8 3 -13 0 -27 -6 -31 -17 -10 -43 16 -38 37 5 19 4
22 -6 11z"/>
<path d="M11985 1465 c-31 -30 -34 -84 -7 -108 24 -22 39 -22 18 -1 -21 21
-20 52 3 97 22 43 19 46 -14 12z"/>
<path d="M12020 1420 c23 -23 26 -50 8 -70 -7 -8 -3 -6 10 4 12 11 22 27 22
37 0 21 -26 49 -46 49 -10 0 -9 -5 6 -20z"/>
<path d="M3036 1382 c-2 -4 11 -6 30 -4 41 5 42 -2 15 -81 -11 -32 -17 -57
-12 -57 6 0 51 125 51 143 0 10 -78 9 -84 -1z"/>
<path d="M3170 1369 c-13 -23 -11 -27 22 -43 17 -9 23 -21 23 -44 0 -29 1 -31
12 -15 7 9 13 24 13 33 0 19 -30 50 -48 50 -7 0 -12 6 -12 14 0 9 13 16 33 19
l32 4 -32 1 c-24 2 -35 -4 -43 -19z"/>
<path d="M6195 1376 c-18 -13 -18 -14 8 -9 22 4 27 2 27 -15 0 -12 -5 -24 -11
-27 -7 -5 -4 -13 7 -26 10 -11 14 -27 11 -39 -4 -17 -3 -19 9 -9 18 15 18 43
-1 59 -11 9 -12 16 -3 30 9 14 9 22 -1 34 -16 20 -22 20 -46 2z"/>
<path d="M6098 1305 c-2 -62 0 -75 12 -75 12 0 14 13 12 75 -2 41 -7 75 -12
75 -5 0 -10 -34 -12 -75z"/>
<path d="M6307 1373 c-11 -10 -8 -51 4 -58 7 -5 5 -13 -6 -25 -13 -15 -14 -23
-5 -39 6 -12 16 -21 22 -21 9 0 9 3 0 12 -15 15 -16 45 -2 53 18 11 42 -17 37
-42 -3 -19 -2 -21 9 -12 18 15 18 44 -1 59 -14 12 -14 15 0 30 9 9 13 25 9 34
-9 25 -22 19 -17 -8 3 -13 0 -27 -6 -31 -17 -10 -43 16 -38 37 5 19 4 22 -6
11z"/>
<path d="M8535 1200 l0 -80 43 0 c24 0 52 5 63 10 23 13 25 43 4 60 -11 9 -13
16 -5 24 32 32 -6 66 -73 66 l-32 0 0 -80z m80 50 c8 -24 -1 -40 -21 -40 -9 0
-14 11 -14 30 0 35 25 42 35 10z m3 -88 c3 -27 0 -32 -17 -32 -17 0 -21 6 -21
36 0 28 3 35 18 32 11 -2 18 -14 20 -36z"/>
<path d="M8925 1200 c0 -73 2 -80 20 -80 18 0 20 5 17 45 -3 37 -1 45 13 45
14 0 16 -8 13 -45 -3 -40 -1 -45 17 -45 19 0 20 5 15 53 -5 49 -6 52 -32 50
-25 -2 -28 2 -28 28 0 21 -5 29 -17 29 -16 0 -18 -10 -18 -80z"/>
<path d="M3150 1250 c0 -5 12 -10 28 -9 24 0 25 1 7 9 -27 12 -35 12 -35 0z"/>
<path d="M9474 1243 c-5 -10 -8 -42 -6 -70 3 -43 7 -53 22 -53 11 0 22 5 26
12 4 7 3 8 -4 4 -9 -5 -12 6 -12 38 0 26 5 46 13 49 10 4 10 6 0 6 -7 1 -13 8
-13 16 0 20 -13 19 -26 -2z"/>
<path d="M6170 1240 c0 -5 12 -10 28 -9 24 0 25 1 7 9 -27 12 -35 12 -35 0z"/>
<path d="M8697 1188 c7 -65 8 -66 55 -66 l43 0 -3 54 c-3 42 -7 54 -20 54 -13
0 -17 -10 -17 -47 0 -64 -23 -70 -27 -6 -2 35 -7 49 -20 51 -14 3 -15 -4 -11
-40z"/>
<path d="M8826 1215 c-19 -19 -21 -66 -4 -83 15 -15 55 -16 64 0 4 7 3 8 -5 4
-19 -12 -41 14 -41 50 0 24 5 34 15 34 8 0 15 -7 15 -15 0 -8 5 -15 11 -15 6
0 9 8 7 18 -4 23 -41 27 -62 7z"/>
<path d="M9062 1218 c-17 -17 -15 -28 4 -28 10 0 14 6 10 15 -4 10 1 15 14 15
32 0 24 -34 -10 -47 -20 -7 -30 -18 -30 -32 0 -17 6 -20 48 -19 l47 0 -3 41
c-3 23 -9 48 -14 55 -13 15 -50 16 -66 0z m48 -62 c0 -8 -4 -17 -9 -21 -12 -7
-24 12 -16 25 9 15 25 12 25 -4z"/>
<path d="M9165 1175 c0 -48 2 -55 20 -55 18 0 20 5 17 45 -4 46 -4 46 23 39
21 -5 26 -3 23 7 -2 7 -22 14 -44 16 l-39 2 0 -54z"/>
<path d="M9288 1219 c-21 -12 -24 -69 -6 -87 15 -15 55 -16 64 0 4 7 3 8 -5 4
-19 -12 -41 14 -41 50 0 25 4 34 16 34 11 0 15 -6 11 -20 -4 -15 0 -20 15 -20
19 0 19 2 6 23 -18 26 -36 31 -60 16z"/>
<path d="M9377 1223 c-15 -14 -6 -43 19 -59 15 -10 23 -23 19 -31 -3 -9 0 -13
7 -11 25 9 21 42 -8 65 -31 24 -25 45 6 25 17 -10 20 -10 20 3 0 15 -50 22
-63 8z"/>
<path d="M9370 1137 c0 -10 8 -17 18 -17 9 0 13 4 7 8 -5 4 -13 11 -17 16 -5
5 -8 2 -8 -7z"/>
<path d="M2355 940 l0 -80 48 0 c38 0 53 5 72 25 61 60 11 135 -89 135 l-31 0
0 -80z m89 48 c30 -43 14 -118 -24 -118 -18 0 -20 7 -20 70 0 76 14 91 44 48z"/>
<path d="M2744 1004 c3 -9 6 -44 6 -78 0 -52 3 -62 18 -62 14 0 17 9 15 51 -1
27 -2 62 -2 78 -1 21 -6 27 -22 27 -15 0 -19 -4 -15 -16z"/>
<path d="M2984 983 c-5 -10 -8 -42 -6 -70 3 -43 7 -53 22 -53 11 0 22 5 26 12
4 7 3 8 -4 4 -9 -5 -12 6 -12 38 0 26 5 46 13 49 10 4 10 6 0 6 -7 1 -13 8
-13 16 0 20 -13 19 -26 -2z"/>
<path d="M2525 915 c0 -48 2 -55 20 -55 18 0 20 5 17 45 -4 46 -4 46 23 39 21
-5 26 -3 23 7 -2 7 -22 14 -44 16 l-39 2 0 -54z"/>
<path d="M2646 954 c-19 -18 -21 -65 -4 -82 20 -20 23 -14 23 35 0 27 5 48 12
50 18 6 28 -44 14 -73 -12 -27 0 -32 23 -8 20 20 20 43 0 72 -18 26 -46 28
-68 6z"/>
<path d="M2807 944 c13 -21 15 -32 6 -55 -12 -32 -3 -38 21 -13 31 30 10 94
-30 94 -12 0 -12 -4 3 -26z"/>
<path d="M2888 959 c-21 -12 -24 -69 -6 -87 15 -15 55 -16 64 0 4 7 3 8 -5 4
-19 -12 -41 14 -41 50 0 25 4 34 16 34 11 0 15 -6 11 -20 -4 -15 0 -20 15 -20
19 0 19 2 6 23 -18 26 -36 31 -60 16z"/>
<path d="M3062 958 c-17 -17 -15 -28 4 -28 10 0 14 6 10 15 -4 10 1 15 14 15
32 0 24 -34 -10 -47 -20 -7 -30 -18 -30 -32 0 -17 6 -20 48 -19 l47 0 -3 41
c-3 23 -9 48 -14 55 -13 15 -50 16 -66 0z m48 -62 c0 -8 -4 -17 -9 -21 -12 -7
-24 12 -16 25 9 15 25 12 25 -4z"/>
<path d="M8312 768 c-13 -13 -16 -47 -4 -65 4 -6 21 -13 37 -15 l30 -3 -27
-27 c-29 -30 -28 -34 3 -17 12 6 27 25 34 42 l13 32 8 -30 c7 -32 22 -55 34
-55 5 0 1 14 -7 31 -13 25 -14 41 -6 75 9 37 8 42 -3 33 -8 -6 -14 -18 -14
-25 0 -8 -4 -14 -10 -14 -5 0 -10 6 -10 14 0 7 -6 18 -13 24 -10 8 -12 2 -9
-30 4 -37 3 -39 -19 -36 -20 2 -24 9 -24 41 0 20 0 37 0 37 -1 0 -6 -5 -13
-12z"/>
<path d="M8474 773 c12 -21 9 -112 -4 -128 -9 -11 -9 -15 -1 -15 7 0 18 15 26
34 17 40 11 89 -13 108 -12 10 -14 10 -8 1z"/>
<path d="M11769 501 c15 -27 14 -114 -1 -129 -9 -9 3 -12 55 -12 37 0 67 4 67
9 0 5 3 18 6 28 5 13 2 12 -10 -4 -11 -15 -28 -23 -47 -23 l-29 0 0 70 c0 68
1 70 24 70 14 0 32 -10 41 -22 l16 -23 -3 25 c-3 23 -7 25 -66 28 -60 3 -63 2
-53 -17z"/>
<path d="M11930 505 c-7 -8 -13 -44 -14 -80 -1 -59 1 -65 19 -65 19 0 20 6 17
75 -2 49 0 75 7 75 6 0 10 -4 9 -9 -2 -5 2 -9 7 -10 6 -1 10 5 10 12 0 18 -40
20 -55 2z"/>
<path d="M12220 506 c0 -9 7 -16 16 -16 9 0 14 5 12 12 -6 18 -28 21 -28 4z"/>
<path d="M12006 454 c-19 -18 -21 -65 -4 -82 20 -20 23 -14 23 35 0 27 5 48
12 50 18 6 28 -44 14 -73 -12 -27 0 -32 23 -8 20 20 20 43 0 72 -18 26 -46 28
-68 6z"/>
<path d="M12105 415 c0 -48 2 -55 20 -55 18 0 20 5 17 45 -4 46 -4 46 23 39
21 -5 26 -3 23 7 -2 7 -22 14 -44 16 l-39 2 0 -54z"/>
<path d="M12215 415 c0 -48 2 -55 20 -55 18 0 20 5 17 55 -3 43 -7 55 -20 55
-14 0 -17 -10 -17 -55z"/>
<path d="M12288 459 c-21 -12 -24 -69 -6 -87 15 -15 55 -16 64 0 4 7 3 8 -5 4
-19 -12 -41 14 -41 50 0 25 4 34 16 34 11 0 15 -6 11 -20 -4 -15 0 -20 15 -20
19 0 19 2 6 23 -18 26 -36 31 -60 16z"/>
<path d="M4905 435 c-33 -32 -34 -83 -2 -113 29 -27 89 -30 108 -4 11 14 11
15 -1 5 -22 -20 -68 -16 -80 6 -14 27 -13 84 3 103 6 9 21 18 32 21 15 3 13 5
-8 6 -17 1 -37 -8 -52 -24z"/>
<path d="M5003 452 c-8 -5 -8 -12 3 -26 13 -19 14 -19 14 7 0 30 0 30 -17 19z"/>
<path d="M5270 446 c0 -9 7 -16 16 -16 9 0 14 5 12 12 -6 18 -28 21 -28 4z"/>
<path d="M11834 449 c-3 -6 -1 -16 5 -22 8 -8 11 -5 11 11 0 24 -5 28 -16 11z"/>
<path d="M5045 355 c0 -48 2 -55 20 -55 18 0 20 5 17 45 -4 46 -4 46 23 39 21
-5 26 -3 23 7 -2 7 -22 14 -44 16 l-39 2 0 -54z"/>
<path d="M5162 398 c-17 -17 -15 -28 4 -28 10 0 14 6 10 15 -4 10 1 15 14 15
32 0 24 -34 -10 -47 -20 -7 -30 -18 -30 -32 0 -17 6 -20 48 -19 l47 0 -3 41
c-3 23 -9 48 -14 55 -13 15 -50 16 -66 0z m48 -62 c0 -8 -4 -17 -9 -21 -12 -7
-24 12 -16 25 9 15 25 12 25 -4z"/>
<path d="M5265 355 c0 -48 2 -55 20 -55 18 0 20 5 17 55 -3 43 -7 55 -20 55
-14 0 -17 -10 -17 -55z"/>
<path d="M5346 394 c-19 -18 -21 -65 -4 -82 20 -20 23 -14 23 35 0 27 5 48 12
50 18 6 28 -44 14 -73 -12 -27 0 -32 23 -8 20 20 20 43 0 72 -18 26 -46 28
-68 6z"/>
<path d="M5440 406 c0 -2 11 -27 24 -57 22 -52 23 -52 36 -30 9 18 9 25 0 31
-7 4 -13 19 -13 34 -2 20 -7 26 -24 26 -13 0 -23 -2 -23 -4z"/>
<path d="M5514 384 c-2 -28 -1 -28 15 4 9 17 9 22 -1 22 -7 0 -14 -12 -14 -26z"/>
<path d="M5572 398 c-17 -17 -15 -28 4 -28 10 0 14 6 10 15 -4 10 1 15 14 15
32 0 24 -34 -10 -47 -20 -7 -30 -18 -30 -32 0 -17 6 -20 48 -19 l47 0 -3 41
c-3 23 -9 48 -14 55 -13 15 -50 16 -66 0z m48 -62 c0 -8 -4 -17 -9 -21 -12 -7
-24 12 -16 25 9 15 25 12 25 -4z"/>
<path d="M8145 375 c-31 -30 -32 -73 -4 -109 27 -34 58 -37 35 -4 -19 27 -21
88 -3 110 6 9 21 18 32 21 15 3 13 5 -8 6 -17 1 -37 -8 -52 -24z"/>
<path d="M8243 392 c-8 -5 -8 -12 3 -26 13 -19 14 -19 14 7 0 30 0 30 -17 19z"/>
<path d="M8310 386 c0 -9 7 -16 16 -16 17 0 14 22 -4 28 -7 2 -12 -3 -12 -12z"/>
<path d="M8720 386 c0 -9 7 -16 16 -16 9 0 14 5 12 12 -6 18 -28 21 -28 4z"/>
<path d="M8305 295 c0 -48 2 -55 20 -55 18 0 20 5 17 55 -3 43 -7 55 -20 55
-14 0 -17 -10 -17 -55z"/>
<path d="M8367 308 c7 -65 8 -66 55 -66 l43 0 -3 54 c-3 42 -7 54 -20 54 -13
0 -17 -10 -17 -47 0 -64 -23 -70 -27 -6 -2 35 -7 49 -20 51 -14 3 -15 -4 -11
-40z"/>
<path d="M8495 295 c0 -48 2 -55 20 -55 18 0 20 5 17 45 -4 46 -4 46 23 39 21
-5 26 -3 23 7 -2 7 -22 14 -44 16 l-39 2 0 -54z"/>
<path d="M8612 338 c-16 -16 -15 -45 1 -51 9 -3 9 -8 1 -18 -6 -8 -11 -26 -12
-41 -1 -22 4 -29 23 -34 13 -3 30 -4 37 -1 7 3 1 6 -14 6 -40 1 -38 31 2 31
22 0 30 -5 30 -17 0 -13 3 -14 11 -6 19 19 3 40 -35 47 -25 5 -34 11 -29 19 4
7 6 24 4 39 -2 21 2 28 14 28 14 0 16 -7 13 -30 -6 -40 22 -38 33 2 6 22 3 27
-15 32 -33 9 -51 7 -64 -6z"/>
<path d="M8715 295 c0 -48 2 -55 20 -55 18 0 20 5 17 55 -3 43 -7 55 -20 55
-14 0 -17 -10 -17 -55z"/>
<path d="M8787 308 c7 -65 8 -66 55 -66 l43 0 -3 54 c-3 42 -7 54 -20 54 -13
0 -17 -10 -17 -47 0 -64 -23 -70 -27 -6 -2 35 -7 49 -20 51 -14 3 -15 -4 -11
-40z"/>
<path d="M8219 301 c8 -6 12 -19 9 -35 -8 -39 20 -30 37 12 l14 32 -37 0 c-25
0 -33 -3 -23 -9z"/>
</g>
</svg>
